<?xml version="1.0" encoding="UTF-8"?>
<svg version="1.1" xmlns="http://www.w3.org/2000/svg" width="1140" height="912">
<path d="M0 0 C3.66734539 0.86335423 7.34013322 1.6037822 11.03833008 2.3190918 C37.46912503 7.44060402 37.46912503 7.44060402 46.359375 11.75 C49.54158766 13.25791123 52.79511652 14.5734941 56.0625 15.8828125 C57.02410034 16.2698938 57.02410034 16.2698938 58.00512695 16.66479492 C63.04948789 18.66765617 68.15836323 20.36974084 73.359375 21.92578125 C75.83820833 22.91812466 77.12249765 23.78333447 78.75 25.8828125 C78.75 26.5428125 78.75 27.2028125 78.75 27.8828125 C79.74515625 28.10582031 80.7403125 28.32882813 81.765625 28.55859375 C86.30185057 29.8590544 89.71705229 32.32121672 93.5 35.0703125 C94.89981029 36.06423651 96.3008588 37.0564189 97.703125 38.046875 C98.38568359 38.5305957 99.06824219 39.01431641 99.77148438 39.51269531 C103.38477883 42.01489281 107.14054276 44.2780066 110.90625 46.54296875 C111.5146875 46.98511719 112.123125 47.42726563 112.75 47.8828125 C112.75 48.5428125 112.75 49.2028125 112.75 49.8828125 C114.296875 50.16125 114.296875 50.16125 115.875 50.4453125 C119.99519198 51.58564846 121.81688604 53.85851916 124.29296875 57.2265625 C125.94822677 59.10814266 127.51609315 59.79970615 129.75 60.8828125 C132.75 65.16852679 132.75 65.16852679 132.75 67.8828125 C133.430625 68.0478125 134.11125 68.2128125 134.8125 68.3828125 C139.83834188 70.94919984 143.95973991 75.51203222 145.75 80.8828125 C146.41 80.8828125 147.07 80.8828125 147.75 80.8828125 C149.15234375 82.52734375 149.15234375 82.52734375 150.6875 84.6953125 C152.75472643 87.61356755 152.75472643 87.61356755 155.15161133 90.25219727 C156.92522007 92.06156534 158.36837769 93.96721565 159.859375 96.015625 C160.44976563 96.82257813 161.04015625 97.62953125 161.6484375 98.4609375 C162.25945313 99.30140625 162.87046875 100.141875 163.5 101.0078125 C171.14668104 111.97144097 171.14668104 111.97144097 179.90917969 122.00048828 C181.86835671 124.00383773 182.35985132 125.15177176 182.75 127.8828125 C183.41 127.8828125 184.07 127.8828125 184.75 127.8828125 C184.99234375 128.39070312 185.2346875 128.89859375 185.484375 129.421875 C187.62743917 133.82339911 190.01133305 137.81630702 192.75 141.8828125 C193.45779213 143.14352913 194.15307287 144.41130374 194.83984375 145.68359375 C198.48184811 152.28736034 202.44637118 158.6974715 206.375 165.1328125 C207.52347035 167.01792797 208.67145648 168.90333774 209.81942749 170.78875732 C210.85493653 172.48886403 211.89154635 174.18830012 212.92822266 175.88769531 C214.09751277 177.81008222 215.2541301 179.74026775 216.39453125 181.67993164 C217.68143759 183.77138623 219.01556551 185.17132027 220.75 186.8828125 C221.64557234 188.30758667 222.5191307 189.7463408 223.375 191.1953125 C226.25073507 195.65415425 229.43757515 198.0533387 233.9921875 200.69140625 C234.86230469 201.28115234 234.86230469 201.28115234 235.75 201.8828125 C235.75 202.5428125 235.75 203.2028125 235.75 203.8828125 C237.07 204.2128125 238.39 204.5428125 239.75 204.8828125 C239.75 205.5428125 239.75 206.2028125 239.75 206.8828125 C240.98556641 207.28693359 240.98556641 207.28693359 242.24609375 207.69921875 C244.69607688 208.52680503 247.11368502 209.38296785 249.53515625 210.28515625 C260.08282557 214.12813446 270.28607328 216.20835456 281.41601562 217.49560547 C285.42045163 217.96067837 289.42099273 218.45466313 293.421875 218.94921875 C301.52881 219.94789325 309.63857422 220.92131143 317.75 221.8828125 C317.75 222.2128125 317.75 222.5428125 317.75 222.8828125 C310.85978307 224.51869605 303.72969309 224.12653283 296.6875 224.1328125 C295.90978241 224.13381958 295.13206482 224.13482666 294.33078003 224.13586426 C264.98220634 224.11029373 230.9717694 222.60929133 205.75 205.8828125 C203.375 203.1328125 203.375 203.1328125 201.75 200.8828125 C199.13181544 199.54982276 199.13181544 199.54982276 196.75 198.8828125 C199.14195459 204.97142417 204.43931867 207.38810408 210.078125 209.953125 C211.75 210.8828125 211.75 210.8828125 212.75 212.8828125 C223.72052937 218.44373601 235.70721374 221.58424439 247.6875 224.0703125 C248.47318359 224.23732666 249.25886719 224.40434082 250.06835938 224.57641602 C263.44875867 227.22496082 277.14583049 227.05350476 290.72979736 227.27096558 C318.26638118 227.73039165 318.26638118 227.73039165 330.875 228.8203125 C331.77210693 228.89499756 332.66921387 228.96968262 333.59350586 229.04663086 C337.35431642 229.41818632 339.5535839 229.75186844 342.75 231.8828125 C320.97602641 232.84909052 299.24656526 233.01074657 277.45513916 232.95147705 C273.18298867 232.9410165 268.91083163 232.93663218 264.63867188 232.93164062 C256.34243083 232.92109992 248.04622025 232.90416768 239.75 232.8828125 C254.85837161 236.72024235 270.25908597 236.64350714 285.75 236.8828125 C286.44928006 236.89383263 287.14856011 236.90485276 287.86903048 236.91620684 C297.69878324 237.06746008 307.52883224 237.1587326 317.3593998 237.23667336 C322.44948249 237.27748904 327.53945602 237.32731348 332.62944031 237.37882996 C333.9369839 237.3920046 333.9369839 237.3920046 335.27094251 237.4054454 C337.04939858 237.42337318 338.82785449 237.44131668 340.60631025 237.4592756 C352.39623161 237.57790453 364.18614757 237.69063317 375.97631836 237.78149414 C384.01403063 237.84350651 392.05150105 237.91905261 400.08894986 238.00906295 C404.30319829 238.05574465 408.51726876 238.0963697 412.73171425 238.12006569 C434.68126535 238.24805067 456.01615042 239.72805198 477.75 242.8828125 C477.75 243.2128125 477.75 243.5428125 477.75 243.8828125 C462.33454171 243.90646704 446.91908482 243.92394782 431.50361252 243.93462467 C424.34143199 243.93972004 417.17926303 243.9466557 410.01708984 243.95825195 C348.37922164 244.05614356 348.37922164 244.05614356 318.75 242.8828125 C320.39186629 243.12807054 322.03373376 243.37332076 323.67560673 243.61853409 C325.06643256 243.82632827 326.4572373 244.03426369 327.84802151 244.24233627 C330.69876977 244.66868901 333.54958454 245.09432391 336.40164185 245.51184082 C346.29922686 246.96141971 356.27704578 248.56923111 365.75 251.8828125 C366.08 252.5428125 366.41 253.2028125 366.75 253.8828125 C361.00899457 254.80517653 355.31156766 255.21991683 349.5078125 255.53125 C348.4763208 255.58826584 347.4448291 255.64528168 346.38208008 255.70402527 C270.65145849 259.81896014 194.86033731 261.35163933 119.03634644 262.52893066 C94.34272221 262.91346205 69.65026088 263.35566234 44.95794678 263.81613159 C40.39111603 263.90121314 35.82426488 263.98499769 31.25738525 264.06741333 C2.16307705 264.58550267 2.16307705 264.58550267 -26.92642975 265.3182354 C-28.94427502 265.37683423 -30.96221859 265.43201764 -32.98016357 265.48707581 C-34.16007874 265.52413132 -35.3399939 265.56118683 -36.55566406 265.59936523 C-37.5682428 265.630056 -38.58082153 265.66074677 -39.62408447 265.69236755 C-41.9708061 265.86256392 -43.99051829 266.26522726 -46.25 266.8828125 C-47.84243022 266.95092329 -49.43752166 266.96774183 -51.03125 266.9453125 C-51.94962646 266.93693359 -52.86800293 266.92855469 -53.81420898 266.91992188 C-54.78302002 266.90767578 -55.75183105 266.89542969 -56.75 266.8828125 C-63.70837395 266.83324261 -70.52021126 266.97020965 -77.44921875 267.65625 C-87.05158404 268.43301037 -96.7076502 267.83530624 -106.3125 267.3828125 C-116.66130875 266.89637232 -126.98080069 266.8048271 -137.34008789 266.91992188 C-145.43131998 266.9793532 -153.48601608 266.75065192 -161.5703125 266.4375 C-173.33973548 265.98548861 -185.10716962 265.68597247 -196.8828125 265.453125 C-197.7620318 265.43561565 -198.64125111 265.41810631 -199.54711342 265.40006638 C-203.23763919 265.32667226 -206.92817281 265.25369161 -210.61871815 265.18128777 C-292.69102327 263.56844702 -374.72143512 260.72831249 -456.75390625 257.75 C-457.77464989 257.71304268 -458.79539352 257.67608536 -459.84706879 257.63800812 C-471.05884064 257.23146324 -482.27000784 256.81043424 -493.48046875 256.36914062 C-494.48328164 256.33023146 -495.48609453 256.29132229 -496.51929569 256.25123405 C-507.25125691 255.82399461 -517.96945024 255.19609096 -528.6875 254.5078125 C-529.69961548 254.44311768 -530.71173096 254.37842285 -531.7545166 254.31176758 C-543.69089545 253.54046641 -555.61162344 252.72196914 -567.5 251.3828125 C-568.46607178 251.27662598 -569.43214355 251.17043945 -570.42749023 251.06103516 C-578.54917045 250.05980219 -587.48907286 248.77865629 -594.25 243.8828125 C-593.92 242.8928125 -593.59 241.9028125 -593.25 240.8828125 C-584.03218095 237.81020615 -575.32262673 239.89575296 -566.69921875 243.578125 C-543.41302102 252.38626774 -514.28529735 250.81287884 -489.6875 251.4453125 C-488.07876939 251.48868633 -486.47004537 251.53230518 -484.86132812 251.57617188 C-480.99095502 251.68119196 -477.12050971 251.78295945 -473.25 251.8828125 C-473.25 251.2228125 -473.25 250.5628125 -473.25 249.8828125 C-474.47553589 249.8969519 -474.47553589 249.8969519 -475.72583008 249.91137695 C-485.15921947 249.97158022 -494.52307715 249.62875838 -503.9375 249.0703125 C-505.04712601 249.00553711 -505.04712601 249.00553711 -506.1791687 248.93945312 C-515.10270937 248.40734467 -523.97252755 247.76518417 -532.8125 246.3828125 C-533.96141724 246.20528442 -533.96141724 246.20528442 -535.13354492 246.02416992 C-536.85479441 245.72296658 -538.55695274 245.31526391 -540.25 244.8828125 C-540.58 244.2228125 -540.91 243.5628125 -541.25 242.8828125 C-536.2950984 241.93393847 -531.43984085 241.60634695 -526.4140625 241.3828125 C-525.57587982 241.34220703 -524.73769714 241.30160156 -523.87411499 241.25976562 C-521.20789008 241.13077525 -518.54148522 241.00629662 -515.875 240.8828125 C-513.21566566 240.75916746 -510.5564105 240.63440649 -507.89730835 240.50585938 C-506.24788951 240.42613585 -504.59833568 240.34913975 -502.94863892 240.27539062 C-498.00476995 240.03666829 -493.15459692 239.55285847 -488.25 238.8828125 C-488.25 238.5528125 -488.25 238.2228125 -488.25 237.8828125 C-490.89 237.5528125 -493.53 237.2228125 -496.25 236.8828125 C-496.25 236.2228125 -496.25 235.5628125 -496.25 234.8828125 C-491.80521982 233.80251068 -487.4130918 233.66505478 -482.86328125 233.56640625 C-482.04740036 233.54562515 -481.23151947 233.52484406 -480.39091492 233.50343323 C-478.66031853 233.46026175 -476.92966818 233.41920869 -475.19897461 233.38012695 C-472.61622538 233.32153138 -470.03372434 233.25610444 -467.45117188 233.18945312 C-456.3823138 232.91538681 -445.32195417 232.82998109 -434.25 232.8828125 C-437.98577345 234.8938323 -441.27935176 235.46069143 -445.5 236.0078125 C-446.76328125 236.17539062 -448.0265625 236.34296875 -449.328125 236.515625 C-450.29234375 236.63679687 -451.2565625 236.75796875 -452.25 236.8828125 C-452.25 237.5428125 -452.25 238.2028125 -452.25 238.8828125 C-440.43757145 239.05467285 -428.62507237 239.22114029 -416.8125 239.3828125 C-415.94492569 239.39468975 -415.07735138 239.406567 -414.18348694 239.41880417 C-387.87139457 239.77739953 -361.56496204 240.04608785 -335.25 239.8828125 C-335.25 239.2228125 -335.25 238.5628125 -335.25 237.8828125 C-336.22420898 237.88804932 -337.19841797 237.89328613 -338.20214844 237.89868164 C-354.90833829 237.98017525 -371.61266029 238.0351405 -388.3125 237.5078125 C-389.46911133 237.47695557 -390.62572266 237.44609863 -391.81738281 237.41430664 C-392.87924805 237.3755542 -393.94111328 237.33680176 -395.03515625 237.296875 C-395.95176025 237.2654541 -396.86836426 237.2340332 -397.81274414 237.20166016 C-400.35345505 236.86927826 -402.04850124 236.16383628 -404.25 234.8828125 C-398.89740711 233.40955696 -394.04194092 232.58614827 -388.46484375 232.35546875 C-386.96443323 232.2865371 -385.46402648 232.21752324 -383.96362305 232.1484375 C-383.18481781 232.11556641 -382.40601257 232.08269531 -381.60360718 232.04882812 C-363.73895987 231.2834357 -346.02664417 229.81112644 -328.25 227.8828125 C-326.51825129 227.70551295 -324.78648312 227.52840322 -323.0546875 227.3515625 C-317.1664468 226.71968532 -311.71234891 226.0299583 -306.265625 223.61328125 C-301.79268499 221.99227392 -296.94398417 221.54779359 -292.25 220.8828125 C-292.25 220.2228125 -292.25 219.5628125 -292.25 218.8828125 C-293.01183594 219.099375 -293.77367187 219.3159375 -294.55859375 219.5390625 C-300.9808895 221.27091753 -306.59595302 222.41942919 -313.25 221.8828125 C-313.91 221.2228125 -314.57 220.5628125 -315.25 219.8828125 C-313.62750059 219.04462092 -312.00191503 218.2124009 -310.375 217.3828125 C-309.47007812 216.91875 -308.56515625 216.4546875 -307.6328125 215.9765625 C-305.25 214.8828125 -305.25 214.8828125 -303.25 214.8828125 C-303.25 214.2228125 -303.25 213.5628125 -303.25 212.8828125 C-302.569375 212.5115625 -301.88875 212.1403125 -301.1875 211.7578125 C-294.05591637 207.20573784 -290.15243863 200.67072236 -287.25 192.8828125 C-286.59 192.8828125 -285.93 192.8828125 -285.25 192.8828125 C-284.84394531 191.58730469 -284.84394531 191.58730469 -284.4296875 190.265625 C-283.27606785 186.95756336 -281.89963089 183.90976962 -280.375 180.7578125 C-277.87328695 175.43863621 -275.95095764 170.13022799 -274.1875 164.53125 C-273.35384911 162.17618624 -272.42834317 160.25074515 -271.125 158.1328125 C-269.26869593 154.91521877 -268.52987318 152.37000164 -267.7421875 148.8046875 C-266.83504522 145.2625129 -265.41989965 142.00560081 -262.76464844 139.45727539 C-261.08392839 137.71018261 -260.36443873 136.2407915 -259.453125 134.00390625 C-259.13802979 133.25270508 -258.82293457 132.50150391 -258.49829102 131.72753906 C-258.16885498 130.9331543 -257.83941895 130.13876953 -257.5 129.3203125 C-254.87339749 123.20665833 -252.1552926 117.7276794 -248.12109375 112.3984375 C-245.71125064 109.15848142 -243.54723239 105.78492761 -241.375 102.3828125 C-240.98127197 101.77018555 -240.58754395 101.15755859 -240.18188477 100.52636719 C-238.09766421 97.2729499 -238.09766421 97.2729499 -236.25 93.8828125 C-235.59 93.8828125 -234.93 93.8828125 -234.25 93.8828125 C-233.9096875 92.8 -233.9096875 92.8 -233.5625 91.6953125 C-232.28994501 88.96840895 -230.94555873 87.49226105 -228.81713867 85.4284668 C-225.52490199 82.18136437 -222.40966115 78.75817007 -219.25 75.3828125 C-216.59091984 72.54220842 -213.92584389 69.7076327 -211.25 66.8828125 C-210.74082031 66.34011719 -210.23164063 65.79742187 -209.70703125 65.23828125 C-208.59455483 64.08013131 -207.42802641 62.97421932 -206.25 61.8828125 C-205.59 61.8828125 -204.93 61.8828125 -204.25 61.8828125 C-204.25 61.2228125 -204.25 60.5628125 -204.25 59.8828125 C-202.82421875 58.48046875 -202.82421875 58.48046875 -200.9375 56.9453125 C-199.07257269 55.41661947 -197.30575218 53.94154898 -195.64453125 52.19140625 C-194.25 50.8828125 -194.25 50.8828125 -192.25 50.8828125 C-192.25 50.2228125 -192.25 49.5628125 -192.25 48.8828125 C-190.4452383 47.64108775 -188.57653302 46.49213634 -186.6875 45.3828125 C-180.67600887 41.80818408 -174.86264446 37.99792498 -169.10131836 34.03320312 C-164.46289982 30.8828125 -164.46289982 30.8828125 -162.25 30.8828125 C-162.25 30.2228125 -162.25 29.5628125 -162.25 28.8828125 C-153.19471486 24.12165255 -144.0148066 19.80307694 -134.5625 15.8828125 C-133.61874512 15.48521729 -132.67499023 15.08762207 -131.70263672 14.67797852 C-130.80689941 14.31244873 -129.91116211 13.94691895 -128.98828125 13.5703125 C-128.19462158 13.24417969 -127.40096191 12.91804688 -126.58325195 12.58203125 C-124.03094021 11.81716562 -121.8998742 11.75599898 -119.25 11.8828125 C-118.92 11.2228125 -118.59 10.5628125 -118.25 9.8828125 C-116.04785156 9.06079102 -116.04785156 9.06079102 -113.140625 8.26171875 C-112.08109619 7.9673291 -111.02156738 7.67293945 -109.92993164 7.36962891 C-108.7980542 7.06460449 -107.66617676 6.75958008 -106.5 6.4453125 C-105.36232178 6.13255371 -104.22464355 5.81979492 -103.05249023 5.49755859 C-96.20439444 3.63074154 -89.35373781 1.86718743 -82.41015625 0.390625 C-80.21800693 -0.03707464 -80.21800693 -0.03707464 -78.25 -1.1171875 C-70.3211282 -2.24868612 -62.37277441 -2.4388858 -54.375 -2.6796875 C-52.42787109 -2.74446289 -52.42787109 -2.74446289 -50.44140625 -2.81054688 C-16.33488213 -3.8946594 -16.33488213 -3.8946594 0 0 Z M-79.25 28.8828125 C-80.10287598 29.04861816 -80.95575195 29.21442383 -81.83447266 29.38525391 C-91.49287892 30.96468977 -91.49287892 30.96468977 -100.25 34.8828125 C-101.71801351 35.20872821 -103.20025501 35.47308049 -104.6875 35.6953125 C-110.92931197 36.82934924 -116.49008398 39.28986062 -122.25 41.8828125 C-122.25 42.5428125 -122.25 43.2028125 -122.25 43.8828125 C-122.97445313 44.06457031 -123.69890625 44.24632812 -124.4453125 44.43359375 C-129.71799057 45.80449005 -134.50483705 47.18961191 -139.25 49.8828125 C-139.25 50.5428125 -139.25 51.2028125 -139.25 51.8828125 C-134.31798673 51.34962188 -130.0134069 49.79651235 -125.40625 48.0625 C-120.70546435 46.30552319 -115.9591324 44.67779875 -111.21875 43.03125 C-108.13097049 41.96028765 -108.13097049 41.96028765 -105.25 39.8828125 C-102.57539488 39.33953333 -99.94793522 38.89303156 -97.25 38.5078125 C-96.43926025 38.3855127 -95.62852051 38.26321289 -94.79321289 38.13720703 C-91.94672109 37.71016728 -89.09859139 37.29561264 -86.25 36.8828125 C-82.62022683 36.35480871 -78.99058483 35.82597687 -75.36132812 35.29443359 C-72.92961073 34.93924255 -70.49732082 34.5879473 -68.06445312 34.24072266 C-66.94876953 34.07878418 -65.83308594 33.9168457 -64.68359375 33.75 C-63.68384521 33.60675293 -62.68409668 33.46350586 -61.65405273 33.31591797 C-59.24737089 32.99880809 -59.24737089 32.99880809 -57.25 31.8828125 C-54.8148015 31.73417564 -52.41020055 31.64629622 -49.97265625 31.609375 C-49.22700912 31.59689224 -48.481362 31.58440948 -47.71311951 31.57154846 C-19.78901678 31.19793443 6.86379456 34.20654289 33.97265625 41.0625 C37.53797082 42.25001132 37.53797082 42.25001132 39.75 40.8828125 C7.28885113 21.19669641 -43.08939386 21.5846856 -79.25 28.8828125 Z M77.75 57.8828125 C82.07577681 62.61413088 87.13825592 67.25468309 93.625 68.3828125 C94.32625 68.5478125 95.0275 68.7128125 95.75 68.8828125 C96.11544922 69.95789063 96.11544922 69.95789063 96.48828125 71.0546875 C98.22011131 74.93656045 100.82584711 76.96733365 104.0625 79.6328125 C104.63162109 80.12652344 105.20074219 80.62023437 105.78710938 81.12890625 C109.01989693 83.8383608 111.40105619 85.52380025 115.75 85.8828125 C116.245 87.3678125 116.245 87.3678125 116.75 88.8828125 C117.41 88.8828125 118.07 88.8828125 118.75 88.8828125 C118.935625 89.5634375 119.12125 90.2440625 119.3125 90.9453125 C120.9696952 94.33175487 122.9625347 96.20248824 125.671875 98.76953125 C129.0215075 102.17583046 131.89193098 105.96276898 134.83203125 109.72265625 C135.46496094 110.43550781 136.09789062 111.14835937 136.75 111.8828125 C137.41 111.8828125 138.07 111.8828125 138.75 111.8828125 C139.018125 112.6459375 139.28625 113.4090625 139.5625 114.1953125 C140.70134505 116.77269868 141.56416671 118.15236114 143.75 119.8828125 C144.41 119.8828125 145.07 119.8828125 145.75 119.8828125 C146.100625 121.1409375 146.45125 122.3990625 146.8125 123.6953125 C148.0413919 127.35943972 149.55343278 130.35359654 151.6875 133.5703125 C155.40227213 139.18215843 158.69139904 144.9884856 161.9375 150.8828125 C162.44853271 151.79635498 162.95956543 152.70989746 163.48608398 153.65112305 C166.47895133 159.12199262 168.80249405 164.54307841 170.84057617 170.43261719 C171.99389048 173.53990909 173.50538362 176.23447506 175.3125 179.0078125 C175.89128906 179.91789062 176.47007812 180.82796875 177.06640625 181.765625 C178.65033869 184.15276454 178.65033869 184.15276454 181.75 184.8828125 C180.96402574 180.41516933 180.11861182 176.26681965 177.9375 172.2578125 C175.93504471 168.54738063 174.70018756 164.77847552 173.4375 160.7578125 C170.97171395 153.01621127 167.57902745 146.05906924 163.75 138.8828125 C163.19699219 137.79871094 162.64398437 136.71460938 162.07421875 135.59765625 C161.55472656 134.59863281 161.03523437 133.59960938 160.5 132.5703125 C159.81164062 131.24580078 159.81164062 131.24580078 159.109375 129.89453125 C157.83880518 127.57408229 157.83880518 127.57408229 154.75 126.8828125 C154.27653976 125.19963005 153.80966741 123.51408086 153.38916016 121.81689453 C152.29749772 118.51355236 150.11110886 115.97410004 147.9375 113.3203125 C147.51146484 112.78212891 147.08542969 112.24394531 146.64648438 111.68945312 C145.79180036 110.61495627 144.92972073 109.54629719 144.06005859 108.48388672 C143.15647627 107.37958316 142.26418944 106.26597348 141.38134766 105.14501953 C140.21595242 103.6870994 138.98752952 102.28002325 137.75 100.8828125 C137.09 100.8828125 136.43 100.8828125 135.75 100.8828125 C135.5128125 100.31046875 135.275625 99.738125 135.03125 99.1484375 C133.47406762 96.3948833 131.62507203 94.71485616 129.25 92.6328125 C128.4559375 91.92640625 127.661875 91.22 126.84375 90.4921875 C124.92585369 88.67967091 124.92585369 88.67967091 122.75 88.8828125 C122.255 87.3978125 122.255 87.3978125 121.75 85.8828125 C120.925 85.5528125 120.1 85.2228125 119.25 84.8828125 C118.425 84.5528125 117.6 84.2228125 116.75 83.8828125 C116.255 82.3978125 116.255 82.3978125 115.75 80.8828125 C114.925 80.5734375 114.1 80.2640625 113.25 79.9453125 C112.425 79.5946875 111.6 79.2440625 110.75 78.8828125 C110.39587656 77.55484959 110.06478446 76.22064643 109.75 74.8828125 C106.54350383 71.77348289 102.99611324 69.86976378 99.01171875 67.96484375 C95.58872787 66.32724708 92.22634098 64.57034378 88.8515625 62.8359375 C86.83102847 61.74513331 86.83102847 61.74513331 84.75 61.8828125 C84.42 60.8928125 84.09 59.9028125 83.75 58.8828125 C80.78 58.3878125 80.78 58.3878125 77.75 57.8828125 Z M-102.25 86.8828125 C-103.92583579 87.64986688 -105.60306034 88.41389052 -107.28125 89.17578125 C-123.06687448 96.05950911 -123.06687448 96.05950911 -136.25 106.8828125 C-136.25 107.5428125 -136.25 108.2028125 -136.25 108.8828125 C-137.3225 109.1303125 -138.395 109.3778125 -139.5 109.6328125 C-143.25466284 110.88436678 -144.8502828 111.81117448 -147.25 114.8828125 C-147.25 115.5428125 -147.25 116.2028125 -147.25 116.8828125 C-148.384375 117.1509375 -149.51875 117.4190625 -150.6875 117.6953125 C-151.863125 118.0871875 -153.03875 118.4790625 -154.25 118.8828125 C-154.58 119.8728125 -154.91 120.8628125 -155.25 121.8828125 C-156.24 122.2128125 -157.23 122.5428125 -158.25 122.8828125 C-158.25 123.5428125 -158.25 124.2028125 -158.25 124.8828125 C-159.24 125.2128125 -160.23 125.5428125 -161.25 125.8828125 C-161.25 126.5428125 -161.25 127.2028125 -161.25 127.8828125 C-162.013125 128.1303125 -162.77625 128.3778125 -163.5625 128.6328125 C-166.51080945 130.00411922 -167.60834532 131.1179204 -169.25 133.8828125 C-169.25 134.5428125 -169.25 135.2028125 -169.25 135.8828125 C-169.83136719 136.12257813 -170.41273438 136.36234375 -171.01171875 136.609375 C-180.90979644 142.24074206 -187.02263178 156.84281298 -191.25 166.8828125 C-192.36468211 168.93013064 -193.49105873 170.97109824 -194.625 173.0078125 C-199.15993884 181.38800156 -202.29653983 190.01879005 -205.3125 199.02734375 C-213.05741948 222.04636627 -213.05741948 222.04636627 -219.25 231.8828125 C-219.745 228.4178125 -219.745 228.4178125 -220.25 224.8828125 C-223.35551666 224.8828125 -224.60261084 225.422184 -227.25 226.8828125 C-231.56890297 219.35956216 -231.83253353 212.55521072 -232.07421875 204.08984375 C-232.17664983 200.61578816 -232.57965946 197.29991427 -233.25 193.8828125 C-235.76368096 196.13720259 -237.04524878 198.2593703 -238.4375 201.3203125 C-241.46861259 207.57484391 -245.25536985 213.20796678 -249.25 218.8828125 C-249.65863281 219.49253906 -250.06726563 220.10226562 -250.48828125 220.73046875 C-255.98840635 228.23063935 -265.33696367 232.73994474 -274.30566406 234.22265625 C-276.43050419 234.51519964 -278.55588731 234.76988318 -280.6875 235.0078125 C-281.41904297 235.09417969 -282.15058594 235.18054688 -282.90429688 235.26953125 C-284.68560094 235.47909643 -286.46772281 235.68169118 -288.25 235.8828125 C-288.58 236.8728125 -288.91 237.8628125 -289.25 238.8828125 C-276.19149552 241.98195066 -262.9021007 242.04371067 -249.54296875 242.05078125 C-248.08238189 242.05400677 -246.62179534 242.05737173 -245.16120911 242.06086731 C-242.12837982 242.06679502 -239.09557879 242.06871345 -236.06274414 242.06811523 C-232.19874049 242.06801306 -228.33491827 242.08175104 -224.47095776 242.09888744 C-221.46561362 242.11005308 -218.46031308 242.11203317 -215.45495033 242.11150551 C-214.03055499 242.11267543 -212.60615815 242.11704085 -211.18178368 242.12483788 C-198.00345897 242.60862895 -198.00345897 242.60862895 -186.3125 237.5703125 C-182.62551643 232.76606118 -181.73723647 227.73617159 -180.76953125 221.86328125 C-180.4898221 220.26611995 -180.20919131 218.66911985 -179.92773438 217.07226562 C-179.49540394 214.59067436 -179.06882962 212.10869228 -178.65893555 209.62329102 C-176.6928047 197.78958889 -173.51911664 187.65565891 -168.25 176.8828125 C-167.55413177 175.36022271 -166.85969196 173.83697738 -166.16796875 172.3125 C-159.21046162 158.02055533 -150.25154948 146.29182678 -139.25 134.8828125 C-138.17685547 133.71492188 -138.17685547 133.71492188 -137.08203125 132.5234375 C-129.7885711 124.80577985 -121.05744812 118.75444458 -112.25 112.8828125 C-112.25 112.2228125 -112.25 111.5628125 -112.25 110.8828125 C-111.41210938 110.79128906 -110.57421875 110.69976562 -109.7109375 110.60546875 C-105.7325658 109.77477037 -102.4373497 108.19816907 -98.875 106.3203125 C-98.23433594 105.99095703 -97.59367188 105.66160156 -96.93359375 105.32226562 C-95.36861368 104.51641768 -93.80875979 103.70062757 -92.25 102.8828125 C-92.25 102.2228125 -92.25 101.5628125 -92.25 100.8828125 C-90.9338269 100.68244385 -90.9338269 100.68244385 -89.59106445 100.47802734 C-86.56807162 99.93947736 -83.73388789 99.23066177 -80.79296875 98.359375 C-42.70512862 87.25818505 -2.39435114 83.41321421 33.86767578 103.02832031 C36.79513169 104.65261926 39.70976206 106.29479467 42.59838867 107.98730469 C45.94871802 110.14135974 45.94871802 110.14135974 49.75 110.8828125 C49.75 111.5428125 49.75 112.2028125 49.75 112.8828125 C51.48548169 114.32807986 53.28975963 115.6915347 55.125 117.0078125 C56.62160156 118.09449219 56.62160156 118.09449219 58.1484375 119.203125 C60.51392238 121.06361722 60.51392238 121.06361722 62.75 120.8828125 C62.75 121.5428125 62.75 122.2028125 62.75 122.8828125 C63.74 122.8828125 64.73 122.8828125 65.75 122.8828125 C65.75 123.5428125 65.75 124.2028125 65.75 124.8828125 C66.36875 124.9653125 66.9875 125.0478125 67.625 125.1328125 C68.32625 125.3803125 69.0275 125.6278125 69.75 125.8828125 C70.00007813 126.429375 70.25015625 126.9759375 70.5078125 127.5390625 C72.33136177 130.9797215 74.99362872 133.41544647 77.75 136.1328125 C78.56984375 136.96425781 78.56984375 136.96425781 79.40625 137.8125 C82.07600768 140.87497025 82.07600768 140.87497025 85.75 141.8828125 C85.976875 142.5840625 86.20375 143.2853125 86.4375 144.0078125 C87.59224089 146.53724492 88.59107539 148.01349291 90.375 150.0703125 C92.75 152.8828125 92.75 152.8828125 92.75 154.8828125 C94.41236191 156.55377283 96.07975809 158.21972877 97.75 159.8828125 C105.51381882 170.50283295 110.62990294 182.84576869 115.6003418 194.9543457 C117.15305687 198.71795479 118.64100506 201.20264445 121.75 203.8828125 C121.01796717 183.75190965 108.81431835 163.12573098 97.75 146.8828125 C97.05648438 145.78582031 96.36296875 144.68882812 95.6484375 143.55859375 C93.4928596 140.5203821 92.14399377 140.13323126 88.75 138.8828125 C87.625 136.8203125 87.625 136.8203125 86.75 134.8828125 C85.76 134.5528125 84.77 134.2228125 83.75 133.8828125 C83.08333333 132.21614583 82.41666667 130.54947917 81.75 128.8828125 C80.76 128.5528125 79.77 128.2228125 78.75 127.8828125 C78.42 126.8928125 78.09 125.9028125 77.75 124.8828125 C77.09 124.8828125 76.43 124.8828125 75.75 124.8828125 C75.42 123.8928125 75.09 122.9028125 74.75 121.8828125 C74.09 121.8828125 73.43 121.8828125 72.75 121.8828125 C72.75 121.2228125 72.75 120.5628125 72.75 119.8828125 C71.96625 119.8003125 71.1825 119.7178125 70.375 119.6328125 C67.75 118.8828125 67.75 118.8828125 66.625 116.8828125 C66.191875 115.8928125 66.191875 115.8928125 65.75 114.8828125 C64.76 114.5528125 63.77 114.2228125 62.75 113.8828125 C62.3478125 112.7071875 62.3478125 112.7071875 61.9375 111.5078125 C60.31723012 107.92616329 58.32277514 107.29703599 54.75 105.8828125 C54.09 105.8828125 53.43 105.8828125 52.75 105.8828125 C52.65525391 104.97789062 52.65525391 104.97789062 52.55859375 104.0546875 C51.4071695 100.9619731 49.75381816 100.50008235 46.8125 99.1328125 C45.91660156 98.70484375 45.02070312 98.276875 44.09765625 97.8359375 C41.86344306 96.75742241 41.86344306 96.75742241 39.75 96.8828125 C39.75 96.2228125 39.75 95.5628125 39.75 94.8828125 C37.08519728 93.60794665 34.41828284 92.33785784 31.75 91.0703125 C31.00621094 90.71388672 30.26242187 90.35746094 29.49609375 89.99023438 C25.79113637 88.23440675 22.11571561 86.61721476 18.25 85.24609375 C14.75 83.8828125 14.75 83.8828125 13.75 81.8828125 C11.92980537 81.48715883 11.92980537 81.48715883 9.75390625 81.3828125 C4.94082452 80.94863539 0.38235604 80.00082826 -4.3125 78.8828125 C-35.2555915 71.55208868 -73.33679283 72.74200851 -102.25 86.8828125 Z M-140.05224609 145.03442383 C-159.49238202 167.2180513 -171.31516332 195.14472446 -174.13818359 224.42504883 C-174.74668481 230.16488461 -175.82019384 235.12408487 -179.25 239.8828125 C-181.609375 241.5390625 -181.609375 241.5390625 -184 242.3828125 C-184.79921875 242.681875 -185.5984375 242.9809375 -186.421875 243.2890625 C-187.02515625 243.485 -187.6284375 243.6809375 -188.25 243.8828125 C-184.57338779 246.33388731 -181.99703581 246.05714633 -177.76928711 245.87695312 C-177.00798807 245.85327164 -176.24668903 245.82959015 -175.46232033 245.80519104 C-173.8005135 245.75275481 -172.1388452 245.69578152 -170.47732735 245.63487244 C-165.91122101 245.46900283 -161.34400524 245.34045391 -156.77685547 245.20703125 C-155.82225842 245.17831688 -154.86766138 245.14960251 -153.88413715 245.12001801 C-143.96678226 244.82863724 -134.04980886 244.69831536 -124.12890625 244.6015625 C-123.21847565 244.59236282 -122.30804504 244.58316315 -121.37002563 244.57368469 C-115.54361564 244.51526036 -109.71716803 244.46204391 -103.89069366 244.41049194 C-100.75408287 244.38228721 -97.617489 244.35262559 -94.480896 244.32250977 C-65.54110529 244.04488428 -36.60107747 243.83218297 -7.660568 243.64853859 C-4.37391919 243.62760593 -1.08727231 243.60637871 2.1993745 243.58513498 C6.30747612 243.55859185 10.41557873 243.53220327 14.52368164 243.50585938 C15.33659916 243.50064239 16.14951668 243.4954254 16.98706806 243.49005032 C26.71615635 243.42777974 36.44525443 243.36891621 46.17439371 243.31518459 C52.35021156 243.28092643 58.52600749 243.24372384 64.70179552 243.2044611 C68.28936293 243.18179871 71.8769236 243.16056856 75.46452141 243.14331055 C92.24799142 243.06173292 108.98667852 242.73423014 125.75 241.8828125 C125.75 241.2228125 125.75 240.5628125 125.75 239.8828125 C124.09467377 238.86415021 122.42739862 237.86470437 120.75 236.8828125 C119.63381357 234.65043965 119.39686387 232.91694767 119.06640625 230.4453125 C118.88174805 229.10146484 118.88174805 229.10146484 118.69335938 227.73046875 C118.56767578 226.79074219 118.44199219 225.85101563 118.3125 224.8828125 C116.82722597 211.46346594 116.82722597 211.46346594 112.625 198.7578125 C111.96564453 197.38882813 111.96564453 197.38882813 111.29296875 195.9921875 C110.78378906 194.96609375 110.27460937 193.94 109.75 192.8828125 C109.14122361 191.61752573 108.53319366 190.35187963 107.92578125 189.0859375 C103.73877612 180.44684765 99.42281281 171.6596263 93.75 163.8828125 C93.09 163.8828125 92.43 163.8828125 91.75 163.8828125 C91.67394531 163.33496094 91.59789062 162.78710938 91.51953125 162.22265625 C90.46415748 159.01367711 88.61578873 157.01576451 86.4375 154.4453125 C85.65761719 153.51847656 84.87773438 152.59164062 84.07421875 151.63671875 C83.30722656 150.72792969 82.54023437 149.81914062 81.75 148.8828125 C81.05519531 147.94308594 80.36039063 147.00335938 79.64453125 146.03515625 C79.01933594 145.32488281 78.39414062 144.61460937 77.75 143.8828125 C76.76 143.8828125 75.77 143.8828125 74.75 143.8828125 C74.75 143.2228125 74.75 142.5628125 74.75 141.8828125 C74.09 141.8828125 73.43 141.8828125 72.75 141.8828125 C72.75 141.2228125 72.75 140.5628125 72.75 139.8828125 C72.09 139.8828125 71.43 139.8828125 70.75 139.8828125 C70.68167969 139.31820312 70.61335938 138.75359375 70.54296875 138.171875 C66.00587659 125.07465331 41.9078486 113.86359606 30.4609375 108.13671875 C23.69527561 104.85511283 16.94960761 102.06223108 9.75 99.8828125 C8.97398437 99.64159668 8.19796875 99.40038086 7.3984375 99.15185547 C-47.02720289 82.95425599 -102.89354111 104.00088063 -140.05224609 145.03442383 Z M181.75 184.8828125 C182.08 185.8728125 182.41 186.8628125 182.75 187.8828125 C182.75 186.8928125 182.75 185.9028125 182.75 184.8828125 C182.42 184.8828125 182.09 184.8828125 181.75 184.8828125 Z M183.75 187.8828125 C184.08 188.8728125 184.41 189.8628125 184.75 190.8828125 C184.75 189.8928125 184.75 188.9028125 184.75 187.8828125 C184.42 187.8828125 184.09 187.8828125 183.75 187.8828125 Z " fill="#000000" transform="translate(627.25,218.1171875)"/>
<path d="M0 0 C4.80336309 0.11741554 8.73332047 0.3153872 12.5625 3.4375 C15 6 15 6 15 8 C15.66 8 16.32 8 17 8 C17.37511719 8.78503906 17.75023437 9.57007813 18.13671875 10.37890625 C21.01945483 16.29686571 23.80852163 21.90225604 28 27 C28.99 27.33 29.98 27.66 31 28 C30.79375 26.88625 30.5875 25.7725 30.375 24.625 C30.25125 23.42875 30.1275 22.2325 30 21 C30.66 20.34 31.32 19.68 32 19 C33.00578589 20.28716647 34.00446798 21.57988658 35 22.875 C35.556875 23.59429688 36.11375 24.31359375 36.6875 25.0546875 C38 27 38 27 38 29 C38.99 29.33 39.98 29.66 41 30 C42.1875 33.5625 42.1875 33.5625 43 37 C43 33.5398104 42.87209086 32.19264208 41.65234375 29.1796875 C41.37712891 28.47972656 41.10191406 27.77976562 40.81835938 27.05859375 C40.22786256 25.5947901 39.63670949 24.13125103 39.04492188 22.66796875 C38.31060664 20.79848856 37.64954451 18.90059647 37 17 C37.33 16.34 37.66 15.68 38 15 C43.78550624 22.74174263 49.10432637 30.69670503 54.25 38.875 C55.62750683 41.06160005 57.00762347 43.24655864 58.390625 45.4296875 C58.98907227 46.38085449 59.58751953 47.33202148 60.20410156 48.31201172 C61.98467298 51.07020017 61.98467298 51.07020017 64.22558594 53.72314453 C66 56 66 56 66 58 C66.763125 58.20625 67.52625 58.4125 68.3125 58.625 C71.83278879 60.42607799 72.2652256 62.5304512 74 66 C75.65816784 66.68753301 77.32459336 67.35561283 79 68 C79.68132451 69.66072849 80.34742127 71.327767 81 73 C81.721875 73.433125 82.44375 73.86625 83.1875 74.3125 C85.91237492 75.94742495 86.95655336 77.06865245 88.875 79.5 C92.30816911 83.58350511 96.21432763 86.6251398 100.5 89.75 C101.12890137 90.20955078 101.75780273 90.66910156 102.40576172 91.14257812 C107.57194678 94.83866678 112.90150692 98.292648 118.8125 100.6875 C120.56309939 101.40833504 122.30667159 102.15333579 124 103 C124 103.66 124 104.32 124 105 C124.80268311 105.26502319 124.80268311 105.26502319 125.62158203 105.53540039 C129.69453146 106.88586764 133.75689677 108.25937109 137.8046875 109.68359375 C155.07091088 115.69999471 171.68776133 119.62592985 190 120 C191.02359619 120.0306958 191.02359619 120.0306958 192.06787109 120.06201172 C211.46775668 120.61603253 233.31740991 119.68815307 250.9921875 110.91796875 C253.15757447 109.9279572 255.25899433 109.34678282 257.5625 108.75 C269.1939737 105.42931406 283.46453222 98.55792953 292 90 C293.29612546 89.14142008 294.61071718 88.31039993 295.9375 87.5 C302.24357261 83.36772803 307.57857854 78.19762697 313 73 C313.80824219 72.23300781 314.61648438 71.46601562 315.44921875 70.67578125 C321.95050201 64.35603469 328.03424939 57.54130561 333 49.9375 C336.18296416 45.26252139 339.85919357 40.85865203 344 37 C344.99 37 345.98 37 347 37 C346.67 39.64 346.34 42.28 346 45 C346.78375 44.484375 347.5675 43.96875 348.375 43.4375 C349.24125 42.963125 350.1075 42.48875 351 42 C351.66 42.33 352.32 42.66 353 43 C353.0928125 41.824375 353.0928125 41.824375 353.1875 40.625 C353.455625 39.75875 353.72375 38.8925 354 38 C356.5625 36.6875 356.5625 36.6875 359 36 C358.67 38.64 358.34 41.28 358 44 C359.65 43.67 361.3 43.34 363 43 C363.103125 42.154375 363.20625 41.30875 363.3125 40.4375 C364.67846859 33.60765704 368.09285921 27.90426413 371.4375 21.8671875 C373.74308984 17.63643014 375.87935461 13.32574125 378 9 C378.639375 9.165 379.27875 9.33 379.9375 9.5 C381.80826821 10.03926667 381.80826821 10.03926667 383 10 C408.63977636 11.42651757 408.63977636 11.42651757 414 15 C414.95917914 22.48692603 412.45170597 29.21941535 410.25 36.3125 C409.90195312 37.47201172 409.55390625 38.63152344 409.1953125 39.82617188 C403.41031347 58.8845298 403.41031347 58.8845298 400 64 C399.34 64 398.68 64 398 64 C397.938125 65.19625 397.87625 66.3925 397.8125 67.625 C397.60900222 71.55929036 395.91689225 73.45650965 393.35668945 76.35400391 C391.07133209 79.12670128 389.41445417 82.23567914 387.6875 85.375 C387.14899414 86.33599609 387.14899414 86.33599609 386.59960938 87.31640625 C385.72753286 88.8745163 384.86295979 90.43682222 384 92 C383.34 92 382.68 92 382 92 C381.90460938 92.72058594 381.80921875 93.44117188 381.7109375 94.18359375 C379.18861777 104.17586037 369.00347235 112.72868064 362 120 C361.39591309 120.63131836 360.79182617 121.26263672 360.16943359 121.91308594 C351.32565959 131.11096724 342.23198125 139.38459411 332 147 C331.17242188 147.66128906 330.34484375 148.32257813 329.4921875 149.00390625 C328.79351563 149.55949219 328.09484375 150.11507812 327.375 150.6875 C326.80523438 151.14511719 326.23546875 151.60273437 325.6484375 152.07421875 C324 153 324 153 320 153 C319.79890625 153.57492187 319.5978125 154.14984375 319.390625 154.7421875 C317.47116322 157.85861702 314.84133431 159.32888127 311.75 161.125 C310.76241699 161.70314453 310.76241699 161.70314453 309.75488281 162.29296875 C274.72306254 182.27443799 235.07697665 192.49679294 194.875 192.3125 C194.02316132 192.31034485 193.17132263 192.3081897 192.29367065 192.30596924 C162.74430866 192.18643829 135.66129532 186.34238697 108 176 C108 175.34 108 174.68 108 174 C107.03578125 173.92394531 106.0715625 173.84789062 105.078125 173.76953125 C100.17979734 173.05836482 96.11536351 170.93226274 91.75 168.6875 C90.87956055 168.2438208 90.00912109 167.8001416 89.11230469 167.34301758 C73.44218909 159.20400138 59.35917292 149.51963913 46 138 C45.13632812 137.26652344 44.27265625 136.53304687 43.3828125 135.77734375 C30.29487932 124.34192738 18.37464765 111.9311432 8 98 C7.04673828 96.86498047 7.04673828 96.86498047 6.07421875 95.70703125 C3.09140683 91.81420891 0.63305015 87.647147 -1.875 83.4375 C-2.40730225 82.5494165 -2.93960449 81.66133301 -3.48803711 80.74633789 C-6.89008722 75.01824219 -10.02835337 69.26865328 -12.81640625 63.21484375 C-13.82763708 60.98317706 -13.82763708 60.98317706 -15.48510742 59.77954102 C-17.71340903 57.16195996 -17.8659524 54.68205338 -18.421875 51.3125 C-18.53098206 50.65475586 -18.64008911 49.99701172 -18.75250244 49.31933594 C-18.98024062 47.92497013 -19.20175395 46.52957538 -19.41748047 45.13330078 C-19.74502975 43.03188696 -20.09945649 40.93632977 -20.45703125 38.83984375 C-21.71228721 31.1614891 -22.57325658 23.72255331 -21 16 C-20 15 -20 15 -16.359375 14.9375 C-14.05055105 14.96159208 -11.74221018 15.00013136 -9.43359375 15.0390625 C-5.47351388 15.0800996 -1.86868638 14.99038371 2 14 C1.67 12.80375 1.34 11.6075 1 10.375 C0.10734177 6.84208503 -0.18296045 3.65920891 0 0 Z M45 30 C45 30.66 45 31.32 45 32 C45.66 32 46.32 32 47 32 C47 31.34 47 30.68 47 30 C46.34 30 45.68 30 45 30 Z M341 41 C341.33 41.66 341.66 42.32 342 43 C342.33 42.34 342.66 41.68 343 41 C342.34 41 341.68 41 341 41 Z M-2 62 C-0.37291203 67.62586348 2.21858767 72.59465974 4.9375 77.75 C5.38029297 78.61238281 5.82308594 79.47476563 6.27929688 80.36328125 C6.71177734 81.18699219 7.14425781 82.01070312 7.58984375 82.859375 C7.98034912 83.60670898 8.37085449 84.35404297 8.77319336 85.12402344 C10.01805398 87.29570361 10.01805398 87.29570361 13 89 C11.81370026 83.06850128 9.13917582 78.8207356 5.8203125 73.80078125 C3.33619058 69.97864516 1.15178533 66.01600488 -1 62 C-1.33 62 -1.66 62 -2 62 Z M13 89 C13.66 90.32 14.32 91.64 15 93 C14.67 91.68 14.34 90.36 14 89 C13.67 89 13.34 89 13 89 Z M19 98 C20.64585392 101.84649006 23.18223006 104.85028656 25.875 108 C26.3596875 108.5681543 26.844375 109.13630859 27.34375 109.72167969 C34.96799915 118.54332694 43.13378527 126.59077797 52.27734375 133.83984375 C54.14736231 135.32351701 55.9927829 136.8385642 57.81640625 138.37890625 C62.47248145 142.30969574 66.96952583 145.83671317 72.38671875 148.63671875 C74.46565567 149.72124638 76.49123969 150.84570917 78.51953125 152.01953125 C114.34609467 172.73330844 153.53551849 183.47350709 194.9375 183.375 C196.12782333 183.37518127 196.12782333 183.37518127 197.3421936 183.37536621 C212.17971864 183.34350178 226.42347567 181.8924631 241 179 C241.90347168 178.82388184 242.80694336 178.64776367 243.73779297 178.46630859 C264.95204478 174.2505284 284.96238184 166.20231385 304 156 C304.60005859 155.68063477 305.20011719 155.36126953 305.81835938 155.03222656 C320.18292746 147.3173413 332.7514764 137.70219836 345 127 C344.34 126.67 343.68 126.34 343 126 C338.10932905 128.15192559 338.10932905 128.15192559 334.9375 132.125 C334.628125 132.74375 334.31875 133.3625 334 134 C333.14277344 134.27585937 332.28554688 134.55171875 331.40234375 134.8359375 C327.3736564 136.21429437 324.17037492 138.18329364 320.625 140.5 C319.98433594 140.90347656 319.34367187 141.30695313 318.68359375 141.72265625 C317.08309356 142.7566681 315.53590405 143.87226771 314 145 C314 145.66 314 146.32 314 147 C313.23945312 147.22171875 312.47890625 147.4434375 311.6953125 147.671875 C306.57867318 149.51083628 301.7651966 151.88250511 296.875 154.25 C295.83746582 154.74580566 294.79993164 155.24161133 293.73095703 155.75244141 C288.69651974 158.16716679 283.757455 160.66410202 278.875 163.375 C271.28044823 167.23325404 262.80108808 168.61782095 254.53857422 170.42529297 C250.91398802 171.24586192 247.33307731 172.20361084 243.75 173.1875 C229.30332083 177.07759385 215.74086422 178.20770937 200.75 178.1875 C199.7125061 178.18759064 199.7125061 178.18759064 198.65405273 178.18768311 C189.239736 178.17605448 179.88744175 177.90183534 170.5 177.125 C169.54706055 177.04660889 168.59412109 176.96821777 167.61230469 176.88745117 C162.25269985 176.38311448 157.19310506 175.41801481 152 174 C149.79264701 173.44400999 147.5841984 172.89236146 145.375 172.34375 C130.625 168.65625 130.625 168.65625 127.12890625 167.77685547 C125.28594566 167.31927896 123.44046461 166.8713386 121.58984375 166.44580078 C117.09741834 165.40600771 113.15421782 163.86865364 109 161.875 C108.36191406 161.56933105 107.72382813 161.26366211 107.06640625 160.94873047 C105.04034708 159.97371418 103.02030017 158.98688367 101 158 C99.66668648 157.35933376 98.33335323 156.7187086 97 156.078125 C78.33776606 147.02286074 61.19358426 136.18245255 46 122 C44.6502714 120.82820173 43.2963067 119.66125916 41.9375 118.5 C36.43596854 113.701504 31.11273906 108.65446702 26.5625 102.9375 C25.7890625 101.9784375 25.7890625 101.9784375 25 101 C24.34 101 23.68 101 23 101 C23 100.34 23 99.68 23 99 C21.68 98.67 20.36 98.34 19 98 Z M365 102 C364.67 102.99 364.34 103.98 364 105 C362.66666667 105.66666667 361.33333333 106.33333333 360 107 C357.57714527 109.63446711 357.57714527 109.63446711 357 113 C356.360625 113.268125 355.72125 113.53625 355.0625 113.8125 C352.66868314 114.88667752 352.66868314 114.88667752 352 118 C350.66666667 118.66666667 349.33333333 119.33333333 348 120 C346.26574227 122.03317007 346.26574227 122.03317007 345 124 C345.33 124.66 345.66 125.32 346 126 C353.52305743 118.68336793 360.70530324 111.42462436 367 103 C366.34 102.67 365.68 102.34 365 102 Z M237.53515625 148.875 C235.8423745 149.05860555 234.1494995 149.24135297 232.45654297 149.42333984 C231.57560974 149.51814636 230.69467651 149.61295288 229.78704834 149.71063232 C204.15927256 152.43249628 179.65216652 151.95841921 154 150 C154 150.66 154 151.32 154 152 C179.04747157 159.31883567 209.74164626 162.41945125 235 154 C235 153.34 235 152.68 235 152 C235.73605469 151.95101562 236.47210937 151.90203125 237.23046875 151.8515625 C238.20628906 151.77679687 239.18210937 151.70203125 240.1875 151.625 C241.15042969 151.55539062 242.11335938 151.48578125 243.10546875 151.4140625 C246.01508938 150.99784147 248.32890774 150.20125904 251 149 C251 148.67 251 148.34 251 148 C246.46692353 147.87422159 242.03144821 148.37000496 237.53515625 148.875 Z " fill="#000000" transform="translate(390,504)"/>
<path d="M0 0 C1.98 0.99 1.98 0.99 4 2 C-3.59066065 17.94462796 -11.68927175 32.22709424 -24 45 C-25.111235 46.32744815 -26.21596137 47.66038631 -27.3125 49 C-33.92650747 56.61946229 -42.49290548 63.63683172 -51 69 C-51.99 69 -52.98 69 -54 69 C-54 69.66 -54 70.32 -54 71 C-90.8646465 92.54427393 -131.41979682 101.37396525 -173.48828125 90.640625 C-182.93535202 88.10391155 -192.14677025 85.19945156 -201 81 C-202.12535156 80.47664062 -203.25070312 79.95328125 -204.41015625 79.4140625 C-232.73102799 65.79292506 -255.29436922 43.51195948 -270.6875 16.3125 C-271.33984619 15.16225342 -271.33984619 15.16225342 -272.00537109 13.98876953 C-272.39934082 13.2667334 -272.79331055 12.54469727 -273.19921875 11.80078125 C-273.54815186 11.16309814 -273.89708496 10.52541504 -274.2565918 9.8684082 C-275 8 -275 8 -275 4 C-273.68 3.67 -272.36 3.34 -271 3 C-270.70867187 3.54825439 -270.41734375 4.09650879 -270.1171875 4.66137695 C-262.0024141 19.93299191 -262.0024141 19.93299191 -252 34 C-251.56606934 34.53786133 -251.13213867 35.07572266 -250.68505859 35.62988281 C-235.13702654 54.77823104 -216.60889715 69.03202392 -194 79 C-193.38012207 79.27537598 -192.76024414 79.55075195 -192.12158203 79.83447266 C-163.2057768 92.37599445 -128.91218228 94.27633842 -98.6875 85.3125 C-97.79579102 85.05049805 -96.90408203 84.78849609 -95.98535156 84.51855469 C-74.91849237 78.15718936 -56.82554488 68.15821403 -40 54 C-39.1234375 53.27683594 -38.246875 52.55367187 -37.34375 51.80859375 C-33.1131644 48.20554502 -29.61942018 44.5531623 -26.484375 39.95703125 C-25 38 -25 38 -22.640625 35.68359375 C-19.73225393 32.72789712 -17.37853342 29.63332641 -15 26.25 C-14.56502197 25.63455322 -14.13004395 25.01910645 -13.68188477 24.38500977 C-7.88058006 16.43426704 -7.88058006 16.43426704 -4.47265625 7.359375 C-3.92111149 4.60620943 -3.07006178 3.81130406 -1 2 C-0.67 1.34 -0.34 0.68 0 0 Z " fill="#050505" transform="translate(734,517)"/>
<path d="M0 0 C4.95 0 9.9 0 15 0 C11.02093353 1.98953324 8.4047475 2.76403138 4 3 C2.68 2.01 1.36 1.02 0 0 Z " fill="#0D0D0D" transform="translate(178,451)"/>
<path d="M0 0 C1.22589844 0.01353516 1.22589844 0.01353516 2.4765625 0.02734375 C3.41628906 0.04474609 3.41628906 0.04474609 4.375 0.0625 C1.66317788 2.66584924 0.48366187 3.05706691 -3.375 3.25 C-4.4475 3.188125 -5.52 3.12625 -6.625 3.0625 C-6.625 2.4025 -6.625 1.7425 -6.625 1.0625 C-4.21954362 -0.14022819 -2.67503047 -0.03821472 0 0 Z " fill="#101010" transform="translate(137.625,451.9375)"/>
<path d="M0 0 C1.65 1.65 3.3 3.3 5 5 C4.67 5.99 4.34 6.98 4 8 C3.34 8 2.68 8 2 8 C1.34 5.36 0.68 2.72 0 0 Z " fill="#090909" transform="translate(427,519)"/>
</svg>
